<svg xmlns="http://www.w3.org/2000/svg" data-name="Layer 1" viewBox="0 0 1200 1000"><g data-name="Mobile App Development" fill="#000000" class="color000 svgShape"><path fill="#199180" d="M364.68 296.174c-8.956-48.031-35.006-83.037-69.808-100.54s-78.152-17.91-122.316 3.257c18.113 96.062 103.999 139.615 192.123 97.283Z" class="color199180 svgShape"></path><path fill="#ffffff" d="m353.893 291.696-166.887-85.071c-.204 0-.204-.204-.204-.407s.204-.204.407-.204l167.294 84.054a.743.743 0 0 1 .407 1.018c-.203.61-.61.814-1.017.61Z" class="colorfff svgShape"></path><path fill="#ffffff" d="M257.83 242.24a50.106 50.106 0 0 0-14.653 2.24 41.213 41.213 0 0 0-6.92 2.849 31.9 31.9 0 0 0-6.105 4.07.875.875 0 0 1-1.018-1.424 42.163 42.163 0 0 1 13.636-6.513 53.452 53.452 0 0 1 15.06-1.628c0 .203.204.203 0 .407ZM308.508 267.885a46.293 46.293 0 0 1-7.53-13.026 50.323 50.323 0 0 1-2.24-7.327 47.375 47.375 0 0 1-.814-7.733.814.814 0 1 1 1.629 0 44.24 44.24 0 0 0 .407 7.326 40.61 40.61 0 0 0 1.831 7.124 56.667 56.667 0 0 0 6.716 13.636c.204-.204.204 0 0 0ZM326.417 276.84a50.106 50.106 0 0 0-14.653 2.238 41.213 41.213 0 0 0-6.92 2.85 31.9 31.9 0 0 0-6.105 4.07.875.875 0 1 1-1.018-1.425 42.163 42.163 0 0 1 13.636-6.512 53.452 53.452 0 0 1 15.06-1.629v.407ZM231.984 229.012a46.294 46.294 0 0 1-7.53-13.025 50.324 50.324 0 0 1-2.24-7.327 47.375 47.375 0 0 1-.813-7.734.814.814 0 1 1 1.628 0 44.24 44.24 0 0 0 .407 7.327 40.608 40.608 0 0 0 1.831 7.123 50.118 50.118 0 0 0 6.717 13.636Z" class="colorfff svgShape"></path><path fill="#2ab19f" d="M364.68 296.174c19.13-44.978 16.484-88.532-2.85-122.316s-55.358-58.207-103.796-64.72c-37.855 89.956 9.77 173.807 106.645 187.036Z" class="color2ab19f svgShape"></path><path fill="#ffffff" d="m358.167 286.405-92.399-162.817c0-.203 0-.407.204-.407s.407 0 .407.204l93.212 162.41a.895.895 0 0 1-.203 1.017.979.979 0 0 1-1.221-.407Z" class="colorfff svgShape"></path><path fill="#ffffff" d="M305.251 192.175a46.75 46.75 0 0 0-20.962-7.734 44.037 44.037 0 0 0-7.327 0 .814.814 0 1 1 0-1.628 49.262 49.262 0 0 1 7.734.407 42.875 42.875 0 0 1 7.326 1.832 43.646 43.646 0 0 1 13.23 7.123ZM333.54 241.63a46.633 46.633 0 0 1 .815-15.06 50.326 50.326 0 0 1 2.238-7.327 35.423 35.423 0 0 1 3.664-6.716c.203-.407.814-.407 1.22-.204s.408.814.204 1.221a28.267 28.267 0 0 0-3.663 6.31 46.827 46.827 0 0 0-2.442 6.92 52.038 52.038 0 0 0-1.628 14.856ZM343.31 258.93a46.75 46.75 0 0 0-20.963-7.734 44.04 44.04 0 0 0-7.327 0 .814.814 0 0 1 0-1.628 49.26 49.26 0 0 1 7.734.407 42.874 42.874 0 0 1 7.327 1.831 39.63 39.63 0 0 1 13.229 7.124c.203-.204.203 0 0 0ZM291.005 166.938a46.633 46.633 0 0 1 .814-15.06 50.324 50.324 0 0 1 2.239-7.327 35.42 35.42 0 0 1 3.663-6.716c.203-.407.814-.407 1.221-.204s.407.814.204 1.221a28.266 28.266 0 0 0-3.664 6.31 46.824 46.824 0 0 0-2.442 6.92 52.038 52.038 0 0 0-1.628 14.856c-.204.204-.204.204-.407 0Z" class="colorfff svgShape"></path><path fill="#48dbc5" d="M364.476 296.174c-36.43-32.563-78.356-44.368-116.618-37.04s-73.064 33.58-94.84 77.337c72.86 64.923 167.497 46.81 211.458-40.297Z" class="color48dbc5 svgShape"></path><path fill="#ffffff" d="m353.079 299.023-183.983 34.599c-.204 0-.407 0-.407-.204s0-.407.203-.407l183.78-35.412a1.12 1.12 0 0 1 1.017.61c.204.407-.203.814-.61.814Z" class="colorfff svgShape"></path><path fill="#ffffff" d="M246.84 318.561a42.578 42.578 0 0 0-10.175 10.787A41.032 41.032 0 0 0 233 335.86a46.826 46.826 0 0 0-2.442 6.92.84.84 0 1 1-1.628-.407 42.948 42.948 0 0 1 17.91-23.812ZM302.809 307.978a52.243 52.243 0 0 1-14.043-5.698 33.69 33.69 0 0 1-6.106-4.478 35.15 35.15 0 0 1-5.291-5.699.875.875 0 1 1 1.425-1.017 42.61 42.61 0 0 0 4.884 5.698 63.337 63.337 0 0 0 5.699 4.681 46.334 46.334 0 0 0 13.636 6.31c-.204 0-.204 0-.204.203ZM322.347 304.111a47.408 47.408 0 0 0-10.38 10.787 41.032 41.032 0 0 0-3.663 6.513 46.827 46.827 0 0 0-2.442 6.92.84.84 0 1 1-1.628-.408 43.157 43.157 0 0 1 6.92-13.636 53.335 53.335 0 0 1 11.193-10.176ZM218.348 324.056a52.243 52.243 0 0 1-14.043-5.698 33.691 33.691 0 0 1-6.106-4.478 35.15 35.15 0 0 1-5.291-5.698.959.959 0 0 1 .203-1.222c.407-.407.814-.203 1.221.204a42.61 42.61 0 0 0 4.885 5.699 63.339 63.339 0 0 0 5.698 4.68 46.334 46.334 0 0 0 13.636 6.31l-.203.203Z" class="colorfff svgShape"></path><path fill="#f0f4f9" d="m694.994 273.176 3.866 30.935a4.971 4.971 0 0 0 4.07 4.478l23.202 5.088a102.336 102.336 0 0 0 6.31 11.397l-7.734 22.387a5.118 5.118 0 0 0 1.831 5.902l24.423 19.131a5.221 5.221 0 0 0 6.105.407l19.945-12.822a88.914 88.914 0 0 0 12.619 3.46l10.38 21.37a5.19 5.19 0 0 0 5.494 2.85l30.936-3.868a4.971 4.971 0 0 0 4.477-4.07l5.088-23.201a102.338 102.338 0 0 0 11.397-6.31l22.388 7.734a5.118 5.118 0 0 0 5.902-1.831l19.13-24.423a5.221 5.221 0 0 0 .408-6.106l-12.822-19.945a88.92 88.92 0 0 0 3.46-12.618l21.37-10.38a5.19 5.19 0 0 0 2.849-5.494l-3.867-30.936a4.971 4.971 0 0 0-4.07-4.477l-23.202-5.088a102.334 102.334 0 0 0-6.31-11.397l7.735-22.387a5.535 5.535 0 0 0-1.832-5.903l-24.423-19.13a5.221 5.221 0 0 0-6.105-.408l-19.945 12.822a88.914 88.914 0 0 0-12.618-3.46l-10.38-21.37a5.19 5.19 0 0 0-5.495-2.849l-30.935 3.867a4.971 4.971 0 0 0-4.478 4.07l-5.088 23.202a102.342 102.342 0 0 0-11.397 6.31l-22.387-7.735a5.118 5.118 0 0 0-5.902 1.832l-19.131 24.423a5.221 5.221 0 0 0-.407 6.105l12.821 19.945a88.92 88.92 0 0 0-3.46 12.618l-21.37 10.38a5.834 5.834 0 0 0-2.848 5.495Zm60.852 8.344a52.191 52.191 0 1 1 58.004 45.386 52.349 52.349 0 0 1-58.004-45.386ZM196.368 763.865v31.138a5.546 5.546 0 0 0 3.46 5.088l22.59 7.734a78.759 78.759 0 0 0 5.088 12.008l-10.38 21.37a5.273 5.273 0 0 0 1.018 6.105l21.98 21.98a5.273 5.273 0 0 0 6.106 1.018l21.37-10.38a67.579 67.579 0 0 0 12.008 4.885l7.733 22.59a5.546 5.546 0 0 0 5.088 3.46h31.14a5.546 5.546 0 0 0 5.087-3.46l7.734-22.59a78.763 78.763 0 0 0 12.008-5.088l21.37 10.38a5.273 5.273 0 0 0 6.105-1.018l21.98-21.98a5.273 5.273 0 0 0 1.018-6.106l-10.38-21.37a67.576 67.576 0 0 0 4.885-12.007l22.59-7.734a5.546 5.546 0 0 0 3.46-5.088v-31.139a5.546 5.546 0 0 0-3.46-5.088l-22.59-7.733a78.759 78.759 0 0 0-5.088-12.008l10.38-21.37a5.273 5.273 0 0 0-1.018-6.106l-21.98-21.98a5.273 5.273 0 0 0-6.106-1.017l-21.37 10.38a67.578 67.578 0 0 0-12.008-4.885l-7.733-22.591a5.546 5.546 0 0 0-5.088-3.46h-31.14a5.546 5.546 0 0 0-5.087 3.46l-7.734 22.59a78.763 78.763 0 0 0-12.008 5.089l-21.37-10.38a5.273 5.273 0 0 0-6.105 1.018l-21.98 21.98a5.273 5.273 0 0 0-1.018 6.106l10.38 21.37a67.577 67.577 0 0 0-4.885 12.007l-22.387 7.734a5.441 5.441 0 0 0-3.663 5.088Zm59.428 15.467a52.203 52.203 0 1 1 52.304 52.102 52.115 52.115 0 0 1-52.304-52.102Z" class="colorf0f4f9 svgShape"></path><path fill="#5b6f8b" fill-rule="evenodd" d="M787.392 157.17v685.66a48.12 48.12 0 0 1-48.03 48.032H379.128a48.12 48.12 0 0 1-48.03-48.031V157.169a48.12 48.12 0 0 1 48.03-48.03h360.232a48.12 48.12 0 0 1 48.031 48.03Z" class="color5b6f8b svgShape"></path><path fill="#ffffff" fill-rule="evenodd" d="M769.279 157.17v685.66a30.098 30.098 0 0 1-29.918 29.918H379.13a30.098 30.098 0 0 1-29.917-29.917V157.169a30.098 30.098 0 0 1 29.917-29.917h74.896a13.137 13.137 0 0 1 12.415 9.158v5.088a13.117 13.117 0 0 0 13.025 13.025h159.56a13.117 13.117 0 0 0 13.026-13.025v-5.088a13.137 13.137 0 0 1 12.414-9.158h74.896a30.098 30.098 0 0 1 29.918 29.917Z" class="colorfff svgShape"></path><path fill="#5b6f8b" d="M724.504 835.911H388.898a11.595 11.595 0 0 1-11.6-11.6V702.604a11.771 11.771 0 0 1 11.6-11.804h335.606a11.813 11.813 0 0 1 11.804 11.804V824.31a11.77 11.77 0 0 1-11.804 11.601ZM388.898 692.836a9.6 9.6 0 0 0-9.565 9.769V824.31a9.554 9.554 0 0 0 9.565 9.566h335.606a9.73 9.73 0 0 0 9.77-9.566V702.605a9.771 9.771 0 0 0-9.77-9.769Z" class="color5b6f8b svgShape"></path><path fill="#ffffff" fill-rule="evenodd" d="M595.472 136.614a5.088 5.088 0 1 0 0-10.176h-93.416a5.088 5.088 0 0 0 0 10.176Zm16.892-9.973a5.088 5.088 0 1 0 0 10.176h4.274a5.088 5.088 0 1 0 0-10.176Z" class="colorfff svgShape"></path><path fill="#3d84f2" d="M560.873 213.544v111.733a12.768 12.768 0 0 1-12.821 12.822H391.748a12.769 12.769 0 0 1-12.822-12.822V213.544a12.769 12.769 0 0 1 12.822-12.821h156.304a12.899 12.899 0 0 1 12.821 12.821Z" class="color3d84f2 svgShape"></path><path fill="#ffffff" d="m402.941 255.266 1.221 10.38a1.391 1.391 0 0 0 1.425 1.424l7.734 1.629a23.977 23.977 0 0 0 2.238 3.866l-2.645 7.53a1.952 1.952 0 0 0 .61 2.036l8.141 6.513a1.872 1.872 0 0 0 2.035.203l6.717-4.274 4.274 1.221 3.46 7.124a2.137 2.137 0 0 0 1.831 1.017l10.38-1.221a1.391 1.391 0 0 0 1.424-1.425l1.628-7.733a23.977 23.977 0 0 0 3.867-2.24l7.53 2.647a1.952 1.952 0 0 0 2.036-.61l6.512-8.142a1.872 1.872 0 0 0 .204-2.035l-4.274-6.716 1.221-4.274 7.123-3.46a2.137 2.137 0 0 0 1.018-1.832l-1.221-10.38a1.391 1.391 0 0 0-1.425-1.424l-7.734-1.628a23.977 23.977 0 0 0-2.238-3.867l2.645-7.53a1.952 1.952 0 0 0-.61-2.035l-8.141-6.513a1.872 1.872 0 0 0-2.035-.204l-6.716 4.274-4.274-1.22-3.46-7.124a2.137 2.137 0 0 0-1.832-1.018l-10.38 1.222a1.391 1.391 0 0 0-1.424 1.424l-1.628 7.734a23.977 23.977 0 0 0-3.867 2.239l-7.53-2.646a1.952 1.952 0 0 0-2.036.61l-6.512 8.141a1.872 1.872 0 0 0-.204 2.036l4.274 6.716-1.221 4.274-7.123 3.46a2.429 2.429 0 0 0-1.018 1.831Zm20.556 2.85a17.532 17.532 0 1 1 19.538 15.264 17.358 17.358 0 0 1-19.538-15.264ZM473.766 288.847l1.018 8.548a1.313 1.313 0 0 0 1.221 1.221l6.513 1.425a26.256 26.256 0 0 0 1.832 3.256l-2.24 6.31a1.583 1.583 0 0 0 .408 1.628l6.92 5.291a1.238 1.238 0 0 0 1.628 0l5.495-3.663a22.241 22.241 0 0 0 3.46 1.017l2.849 5.902a1.363 1.363 0 0 0 1.424.814l8.548-1.017a1.313 1.313 0 0 0 1.221-1.221l1.425-6.513a26.256 26.256 0 0 0 3.256-1.832l6.31 2.24a1.583 1.583 0 0 0 1.628-.408l5.291-6.92a1.238 1.238 0 0 0 0-1.628l-3.256-5.495a22.24 22.24 0 0 0 1.018-3.46l5.902-2.849a1.363 1.363 0 0 0 .814-1.425l-1.018-8.548a1.313 1.313 0 0 0-1.221-1.22l-6.513-1.425a26.256 26.256 0 0 0-1.831-3.257l2.238-6.309a1.364 1.364 0 0 0-.61-1.628l-6.92-5.291a1.238 1.238 0 0 0-1.628 0l-5.495 3.663a22.239 22.239 0 0 0-3.46-1.018l-2.85-5.902a1.363 1.363 0 0 0-1.424-.814l-8.548 1.018a1.313 1.313 0 0 0-1.22 1.22l-1.425 6.514a26.254 26.254 0 0 0-3.257 1.831l-6.309-2.239a1.583 1.583 0 0 0-1.628.407l-5.292 6.92a1.238 1.238 0 0 0 0 1.628l3.664 5.495a22.238 22.238 0 0 0-1.018 3.46l-5.902 2.85a1.302 1.302 0 0 0-1.018 1.424Zm16.893 2.239a14.566 14.566 0 1 1 16.281 12.618 14.62 14.62 0 0 1-16.281-12.618Z" class="colorfff svgShape"></path><path fill="#f0f4f9" d="M743.024 219.854a3.415 3.415 0 0 1-1.22 2.849 4.018 4.018 0 0 1-2.85 1.221h-148.57a4.082 4.082 0 0 1-4.07-4.07 3.415 3.415 0 0 1 1.22-2.85 4.018 4.018 0 0 1 2.85-1.22h148.57a4.082 4.082 0 0 1 4.07 4.07ZM743.024 253.028a3.415 3.415 0 0 1-1.22 2.849 4.018 4.018 0 0 1-2.85 1.22h-148.57a4.082 4.082 0 0 1-4.07-4.07 3.415 3.415 0 0 1 1.22-2.849 4.018 4.018 0 0 1 2.85-1.22h148.57a4.082 4.082 0 0 1 4.07 4.07ZM743.024 285.998a3.415 3.415 0 0 1-1.22 2.85 4.018 4.018 0 0 1-2.85 1.22h-148.57a4.082 4.082 0 0 1-4.07-4.07 3.415 3.415 0 0 1 1.22-2.85 4.018 4.018 0 0 1 2.85-1.22h148.57a4.082 4.082 0 0 1 4.07 4.07ZM743.024 318.968a3.415 3.415 0 0 1-1.22 2.85 4.018 4.018 0 0 1-2.85 1.22h-148.57a4.082 4.082 0 0 1-4.07-4.07 3.415 3.415 0 0 1 1.22-2.85 4.018 4.018 0 0 1 2.85-1.22h148.57a4.082 4.082 0 0 1 4.07 4.07Z" class="colorf0f4f9 svgShape"></path><path fill="#fa5814" d="M170.724 886.995a7.59 7.59 0 0 1-.407 2.442 1.548 1.548 0 0 1-1.628 1.221h-50.066a1.109 1.109 0 0 1-1.018-1.424l1.832-8.141 5.902-25.033a1.548 1.548 0 0 1 1.628-1.221l17.096 1.831a1.53 1.53 0 0 1 1.424 1.425c.204 3.256 1.832 11.397 14.247 15.06 10.176 2.85 11.397 9.566 10.99 13.84Z" class="colorfa5814 svgShape"></path><path fill="#e44000" d="M153.628 870.51c-6.512-4.07-7.734-9.566-7.734-12.212a1.391 1.391 0 0 0-1.424-1.424l-17.096-1.832a1.548 1.548 0 0 0-1.628 1.221l-3.46 14.247Z" class="colore44000 svgShape"></path><path fill="#fa5814" d="M269.024 886.995a7.591 7.591 0 0 1-.407 2.442 1.548 1.548 0 0 1-1.628 1.221h-50.066a1.109 1.109 0 0 1-1.017-1.424l1.831-8.141 5.902-25.033a1.548 1.548 0 0 1 1.629-1.221l17.095 1.831a1.53 1.53 0 0 1 1.425 1.425c.203 3.256 1.832 11.397 14.246 15.06 10.176 2.85 11.398 9.566 10.99 13.84Z" class="colorfa5814 svgShape"></path><path fill="#e44000" d="M251.929 870.51c-6.513-4.07-7.734-9.566-7.734-12.212a1.391 1.391 0 0 0-1.425-1.424l-17.095-1.832a1.548 1.548 0 0 0-1.629 1.221l-3.46 14.247Z" class="colore44000 svgShape"></path><path fill="#191937" d="M200.03 747.38c-2.645 28.085-3.052 38.872-7.122 56.578-2.239 9.159-4.274 40.908 7.53 58.818h74.082c2.645-45.996-17.3-223.262-26.458-256.436l-66.144 1.424c5.495 42.13 20.148 118.653 18.113 139.616Z" class="color191937 svgShape"></path><path fill="#292561" d="M152.61 598.81c-.814 41.518-3.866 106.44-8.954 125.979-6.92 26.05-19.131 47.827-25.237 63.702-5.902 15.467-19.741 32.97-18.317 71.232 0 1.425.814 2.85 2.035 2.85h70.826a2.164 2.164 0 0 0 2.035-1.832c5.698-32.97 42.943-225.298 39.076-259.082Z" class="color292561 svgShape"></path><path fill="#44922b" d="M216.11 465.096s2.848 8.955 6.715 19.742c5.699 15.874 13.433 35.412 16.485 34.395 2.036-.61 26.255 7.937 45.386-2.036a133.13 133.13 0 0 0 23.201-16.281 258.482 258.482 0 0 0 33.58-35.21l-4.884-19.537-61.666 39.89c-13.84-9.362-58.818-20.963-58.818-20.963Z" class="color44922b svgShape"></path><path fill="#327f17" d="M222.825 484.634c5.699 15.875 13.433 35.413 16.485 34.395 2.036-.61 26.255 7.937 45.386-2.035a133.13 133.13 0 0 0 23.2-16.282c-10.99-1.22-21.98 5.902-32.97 4.274-7.326-1.017-13.432-5.902-19.13-10.583-6.717-5.495-13.433-10.99-19.945-16.485-2.646-2.035-4.885-4.07-7.938-1.425-2.238 2.443-3.663 5.495-5.088 8.141Z" class="color327f17 svgShape"></path><path fill="#44922b" d="M138.364 498.27a39.216 39.216 0 0 0 .204 4.885 155.798 155.798 0 0 0 3.663 23.608c2.85 13.432 6.31 27.475 7.937 39.483 2.646 21.777-.61 45.182-.61 45.182 0 1.424 3.663 2.442 9.565 3.052 4.885.611 11.397.815 18.52 1.018 29.308.61 71.03-2.035 71.03-6.513a96.25 96.25 0 0 1-4.885-31.749c.203-9.972.61-21.37.814-32.97V531.24c-.204-4.884-.407-9.769-.814-14.653a72.235 72.235 0 0 0-1.221-9.566 8.656 8.656 0 0 0-.407-2.238c-2.646-15.875-7.734-29.307-17.707-36.023-13.228-8.955-57.8-10.787-74.895.814h-.204a2.81 2.81 0 0 1-.814.61c-5.291 4.07-8.14 10.583-9.565 18.724a361.327 361.327 0 0 0-.61 5.088v4.274Z" class="color44922b svgShape"></path><path fill="#327f17" d="M138.364 498.27a39.216 39.216 0 0 0 .204 4.885 155.798 155.798 0 0 0 3.663 23.608c2.85 13.432 6.31 27.475 7.937 39.483 2.646 21.777-.61 45.182-.61 45.182 0 1.424 3.663 2.442 9.565 3.052l-2.442-27.475c-.61-7.937-1.221-16.485 2.442-23.608 4.681-8.955 15.06-13.433 25.237-14.247 9.972-1.017 20.148.814 30.12.814 7.124 0 14.858-.814 20.557-5.291 3.256-2.442 5.495-6.106 7.326-9.566.61-1.22 1.425-2.645 2.035-3.867a78.329 78.329 0 0 0 7.124-28.085c-3.053.61-6.31 1.22-9.362 1.628a71.572 71.572 0 0 1-11.397.814c-6.92-.204-14.247-2.035-19.742-6.106-4.274-3.256-7.327-7.734-11.194-11.397a45.215 45.215 0 0 0-39.076-12.211c-10.99-.204-18.52 4.07-21.573 13.229a361.51 361.51 0 0 0-.61 5.088 25.948 25.948 0 0 0-.204 4.07Z" class="color327f17 svgShape"></path><path fill="#ffd1c4" d="m201.66 462.247.203-12.822s16.892 9.362 21.573-2.646c4.07-10.176 10.38-42.332-4.478-54.747-23.812-19.741-56.171 8.141-50.473 32.97 1.832 8.141 13.026 18.114 13.026 18.114l-3.867 18.724c-.407 10.176 27.068 11.194 24.015.407Z" class="colorffd1c4 svgShape"></path><path fill="#f1c0ba" d="m201.66 458.99-13.026-15.874c2.239 1.832 13.229 6.31 13.229 6.31Z" class="colorf1c0ba svgShape"></path><path fill="#292561" d="M180.493 452.274s8.751-10.99 4.07-22.183 4.274-13.636 7.124-10.176c2.645 3.46 1.017-1.832 5.495-3.257 14.246-4.68 69.604-36.43 13.636-41.925-30.936-3.053-48.845 7.53-46.607 22.387-19.741 6.31-13.432 21.37 16.282 55.154Z" class="color292561 svgShape"></path><path fill="#c8e1ff" d="M317.055 524.524h407.45a18.24 18.24 0 0 0 18.316-18.317v-104.61a18.24 18.24 0 0 0-18.317-18.316H317.055a18.24 18.24 0 0 0-18.316 18.317v104.61a18.37 18.37 0 0 0 18.316 18.316Z" class="colorc8e1ff svgShape"></path><path fill="#ffd1c4" d="M282.253 491.96s19.131-27.27 30.528-10.379c11.601 16.893-22.794 22.795-22.794 22.795Z" class="colorffd1c4 svgShape"></path><path fill="#44922b" d="M138.364 498.27a9.402 9.402 0 0 0 1.425 1.425c10.786 10.176 51.898 35.209 68.586 43.757a12.093 12.093 0 0 0 11.194-.204l74.489-35.412-11.805-17.91-64.516 23.201s-34.191-31.342-62.277-43.146a9.902 9.902 0 0 0-5.902-.407h-.204a2.81 2.81 0 0 1-.814.61c-6.309 4.885-9.158 13.23-10.176 23.812v4.274Z" class="color44922b svgShape"></path><circle cx="376.891" cy="453.699" r="47.217" fill="#ffffff" class="colorfff svgShape"></circle><path fill="#ffffff" fill-rule="evenodd" d="M717.991 433.55a4.299 4.299 0 0 1-4.274 4.274H450.77a4.173 4.173 0 0 1-4.274-4.274 4.299 4.299 0 0 1 4.274-4.273H713.92a4.262 4.262 0 0 1 4.07 4.273ZM717.991 458.99a4.299 4.299 0 0 1-4.274 4.275H541.54a4.173 4.173 0 0 1-4.274-4.274 4.299 4.299 0 0 1 4.274-4.274h172.178a4.173 4.173 0 0 1 4.274 4.274ZM545.813 484.43a4.299 4.299 0 0 1-4.274 4.275h-90.77a4.173 4.173 0 0 1-4.274-4.274 4.299 4.299 0 0 1 4.274-4.274h90.77a4.173 4.173 0 0 1 4.274 4.274Z" class="colorfff svgShape"></path><path fill="#292561" d="M802.86 886.18a12.317 12.317 0 0 0 .407 3.054 2.163 2.163 0 0 0 1.831 1.628h62.278a1.304 1.304 0 0 0 1.22-1.628l-2.441-10.176-7.327-30.936a1.773 1.773 0 0 0-2.035-1.424l-21.37 2.238a2.159 2.159 0 0 0-1.832 1.832c-.203 4.07-2.238 14.247-17.706 18.52-11.804 3.257-13.432 11.601-13.025 16.893Z" class="color292561 svgShape"></path><path fill="#191937" d="M824.23 865.625c8.14-4.884 9.565-12.008 9.565-15.06a1.824 1.824 0 0 1 1.831-1.832l21.37-2.239a1.825 1.825 0 0 1 2.035 1.425l4.274 17.706H824.23Z" class="color191937 svgShape"></path><path fill="#292561" d="M717.584 886.18a12.317 12.317 0 0 0 .407 3.054 2.163 2.163 0 0 0 1.832 1.628H782.1a1.304 1.304 0 0 0 1.222-1.628l-2.443-10.176-7.326-30.936a1.773 1.773 0 0 0-2.036-1.424l-21.37 2.238a2.159 2.159 0 0 0-1.831 1.832c-.204 4.07-2.239 14.247-17.706 18.52-11.805 3.257-13.23 11.601-13.026 16.893Z" class="color292561 svgShape"></path><path fill="#191937" d="M738.954 865.625c8.14-4.884 9.566-12.008 9.566-15.06a1.824 1.824 0 0 1 1.831-1.832l21.37-2.239a1.825 1.825 0 0 1 2.035 1.425l4.274 17.706h-39.076Z" class="color191937 svgShape"></path><path fill="#ffd1c4" d="M787.392 431.515s-29.103-40.093-38.669-18.317 30.732 34.192 30.732 34.192Z" class="colorffd1c4 svgShape"></path><path fill="#ba93df" d="m930.671 508.446-1.221 1.221-23.405 25.644-55.358-25.033-17.299-7.734-62.074-56.172 13.025-22.998 67.366 55.969 70.011 25.643 5.698 2.239 3.257 1.221z" class="colorba93df svgShape"></path><path fill="#9859cd" d="m929.45 509.667-23.405 25.644-55.358-24.83a9.824 9.824 0 0 1 5.291-6.105c3.46-1.628 7.327-1.628 11.194-1.018 7.937 1.018 15.264 4.07 22.794 6.31s15.672 3.663 23.405 1.627c3.257-.814 6.717-2.645 7.734-5.902l.61-.203 2.036-.407a12.08 12.08 0 0 1 3.663 2.646 5.509 5.509 0 0 1 2.036 2.238Z" class="color9859cd svgShape"></path><path fill="#c8e1ff" d="m871.65 563.6-30.529 19.335a5.745 5.745 0 0 1-7.733-1.425l-37.245-52.508a5.727 5.727 0 0 1 1.629-8.141l30.528-19.335a5.782 5.782 0 0 1 7.733 1.425l37.245 52.508a5.827 5.827 0 0 1-1.628 8.141Z" class="colorc8e1ff svgShape"></path><path fill="#ffffff" d="M838.069 579.475a1.376 1.376 0 0 1-1.221-.61l-37.245-52.509a2.213 2.213 0 0 1-.203-1.018 1.09 1.09 0 0 1 .61-.814l30.528-19.334c.204-.204.407-.204.814-.204a1.76 1.76 0 0 1 1.222.61l37.244 52.51a2.213 2.213 0 0 1 .203 1.017 1.09 1.09 0 0 1-.61.814l-30.528 19.334a1.224 1.224 0 0 1-.814.204Z" class="colorfff svgShape"></path><path fill="#3777da" d="M919.884 646.23s-95.248.61-111.936 16.485c-19.742 18.724-52.509 140.022-95.248 194.566h89.142c32.767-14.45 44.571-125.369 59.021-171.365l48.438-32.563 9.973-19.334Z" class="color3777da svgShape"></path><path fill="#3d84f2" d="M1011.265 663.732s-48.845-13.025-102.168-10.583c0 0-69.4 3.46-85.885 27.476-10.38 15.06-19.945 135.952-29.51 179.302h81.204c26.458-35.617-2.442-127.608-2.442-127.608s53.526-2.85 100.335-2.239 38.466-66.348 38.466-66.348Z" class="color3d84f2 svgShape"></path><path fill="#ba93df" d="M1016.963 664.75c-.407 21.37-108.273 9.77-107.866-11.6 0 0 .611-28.9-2.645-42.74a130.409 130.409 0 0 1-2.239-10.99c-3.46-18.317-5.902-42.536-1.221-61.056 8.548-33.174 51.898-30.936 68.383-24.22 18.113 7.53 36.634 101.15 43.146 136.767 1.628 8.548 2.442 13.84 2.442 13.84Z" class="colorba93df svgShape"></path><path fill="#9859cd" d="M1016.963 664.75c-.407 21.37-108.273 9.77-107.866-11.6 0 0 .611-28.9-2.645-42.74a130.409 130.409 0 0 1-2.239-10.99c.61-1.018 1.018-2.035 1.628-3.053 4.885-9.972 7.123-20.963 9.973-31.546 1.831-6.716 4.07-13.636 7.53-19.741 2.646-4.885 7.937-11.6 11.194-3.664a146.011 146.011 0 0 1 10.38 42.74 168.518 168.518 0 0 1 0 24.83c-.815 9.158-2.443 19.13 2.034 27.068 4.07 7.326 12.212 11.6 20.352 13.025s16.69.61 25.033 0c7.53-.407 15.264-.407 22.388 1.832 1.424 8.548 2.238 13.84 2.238 13.84Z" class="color9859cd svgShape"></path><path fill="#ffd1c4" d="M828.91 572.759s-4.68-36.43-23.812-25.237 16.689 35.616 16.689 35.616ZM923.14 514.959l-5.495-22.388s-23.201 1.629-23.812-9.362-3.256-63.295 33.581-60.445 12.211 58.41 12.211 58.41l7.327 29.307Z" class="colorffd1c4 svgShape"></path><path fill="#292561" d="M990.302 524.117c-4.477 6.716-12.822 9.77-20.759 10.583-13.025 1.628-26.865-1.424-37.244-9.565s-16.689-21.573-15.06-34.599c.813-5.698 3.052-11.193 4.07-16.892 1.22-5.699 1.017-12.008-2.239-16.689-3.46-4.884-9.566-6.92-15.06-9.362-5.292-2.442-10.584-5.698-13.84-10.583-3.053-5.088-3.663-12.007.204-16.485 4.68-5.495 13.025-5.088 20.148-4.477 6.92.61 13.84 1.424 20.76 2.035 4.884.407 9.972 1.017 14.45 3.256 10.175 4.885 14.856 17.3 13.432 28.493-1.018 7.937-4.478 15.875-2.646 23.812 1.628 6.92 6.92 12.008 12.008 16.892 3.663 3.46 7.326 6.92 11.6 9.159 3.053 1.628 6.106 2.035 9.566 3.052 2.035.611 3.256 1.425 3.867 3.664 1.22 5.495 0 13.025-3.257 17.706Z" class="color292561 svgShape"></path><path fill="#ba93df" d="M907.266 528.595s16.078-11.398 25.44 7.53-4.07 110.919-26.661 110.919c-22.388 0-86.497-60.853-86.497-60.853l10.99-15.671 70.012 33.58c-.204-.203-4.274-64.515 6.716-75.505Z" class="colorba93df svgShape"></path><path fill="#fa5814" d="M1100 741.681v135.952a13.117 13.117 0 0 1-13.025 13.025H881.622a13.117 13.117 0 0 1-13.025-13.025V741.68a12.985 12.985 0 0 1 13.025-13.025h205.353A12.985 12.985 0 0 1 1100 741.68Z" class="colorfa5814 svgShape"></path><path fill="#ffffff" d="m944.917 841.203-37.244-25.44a13.295 13.295 0 0 1-2.442-2.24 4.09 4.09 0 0 1-.815-2.645v-2.646a4.09 4.09 0 0 1 .815-2.645 6.636 6.636 0 0 1 2.442-2.24l37.244-25.236a4.29 4.29 0 0 1 2.239-1.017 2.101 2.101 0 0 1 2.239 2.238v8.345a3.656 3.656 0 0 1-.611 2.238 9.167 9.167 0 0 1-2.035 1.832l-26.458 17.706 26.458 17.707a6.103 6.103 0 0 1 2.035 1.831 3.438 3.438 0 0 1 .61 2.036v8.548a2.101 2.101 0 0 1-2.238 2.238 2.552 2.552 0 0 1-2.239-.61ZM959.774 856.67a2.31 2.31 0 0 1-.61-1.628 2.581 2.581 0 0 1 .203-1.221l37.244-89.55c.204-.61.814-1.017 1.222-1.627a3.704 3.704 0 0 1 2.238-.814h7.123a2.101 2.101 0 0 1 2.24 2.238 2.581 2.581 0 0 1-.204 1.221l-37.448 89.55a4.267 4.267 0 0 1-1.221 1.628 3.656 3.656 0 0 1-2.24.61H961.2a1.349 1.349 0 0 1-1.425-.407ZM1019.813 841.406a2.31 2.31 0 0 1-.61-1.628v-8.548a3.039 3.039 0 0 1 .61-2.035 9.167 9.167 0 0 1 2.035-1.832l26.458-17.706-26.458-17.706a6.103 6.103 0 0 1-2.035-1.832 3.656 3.656 0 0 1-.61-2.239v-8.344a2.003 2.003 0 0 1 .61-1.628 2.31 2.31 0 0 1 1.628-.61 4.29 4.29 0 0 1 2.239 1.017l37.244 25.236a8.97 8.97 0 0 1 2.442 2.239 5.772 5.772 0 0 1 .814 2.646v2.646a4.09 4.09 0 0 1-.814 2.645 8.855 8.855 0 0 1-2.442 2.239l-37.448 25.237a3.39 3.39 0 0 1-2.239.814 2.199 2.199 0 0 1-1.424-.61Z" class="colorfff svgShape"></path><path fill="#fdd333" d="M473.36 565.025v82.426a6.558 6.558 0 0 1-6.513 6.513H384.42a6.558 6.558 0 0 1-6.513-6.513v-82.426a6.558 6.558 0 0 1 6.513-6.513h82.426a6.558 6.558 0 0 1 6.512 6.513Z" class="colorfdd333 svgShape"></path><path fill="#f0f4f9" d="M501.852 722.143v82.426a6.558 6.558 0 0 1-6.512 6.513h-82.426a6.558 6.558 0 0 1-6.513-6.513v-82.426a6.558 6.558 0 0 1 6.513-6.513h82.426a6.558 6.558 0 0 1 6.512 6.513Z" class="colorf0f4f9 svgShape"></path><path fill="#48dbc5" d="M604.223 565.025v82.426a6.558 6.558 0 0 1-6.512 6.513h-82.426a6.558 6.558 0 0 1-6.513-6.513v-82.426a6.558 6.558 0 0 1 6.513-6.513h82.63a6.52 6.52 0 0 1 6.308 6.513Z" class="color48dbc5 svgShape"></path><path fill="#ff9a05" d="M735.087 565.025v82.426a6.558 6.558 0 0 1-6.513 6.513H646.15a6.558 6.558 0 0 1-6.513-6.513v-82.426a6.558 6.558 0 0 1 6.513-6.513h82.425a6.558 6.558 0 0 1 6.513 6.513Z" class="colorff9a05 svgShape"></path><path fill="#ffffff" d="M450.972 583.749v37.855c0 3.053-3.46 5.698-7.734 5.698s-7.733-2.645-7.733-5.698c0-3.257 3.46-5.699 7.733-5.699a9.507 9.507 0 0 1 3.46.61V590.67l-30.731 2.442v31.953c0 3.052-3.46 5.698-7.734 5.698s-7.734-2.646-7.734-5.698c0-3.257 3.46-5.699 7.734-5.699a9.508 9.508 0 0 1 3.46.61v-33.987a2.008 2.008 0 0 1 1.831-2.036l35.006-2.238c1.425 0 2.442.814 2.442 2.035ZM703.745 609.189l-28.493 19.334a3.344 3.344 0 0 1-5.292-2.849v-38.872a3.344 3.344 0 0 1 5.292-2.85l28.493 19.335a3.616 3.616 0 0 1 0 5.902ZM596.286 581.103v38.466a3.566 3.566 0 0 1-3.46 3.46h-2.035a1.391 1.391 0 0 0-1.425 1.424v8.955a1.458 1.458 0 0 1-2.239 1.221l-14.042-11.194a1.543 1.543 0 0 0-.815-.407h-46.402a3.566 3.566 0 0 1-3.46-3.46v-38.465a3.567 3.567 0 0 1 3.46-3.46h67.162a3.538 3.538 0 0 1 3.256 3.46Z" class="colorfff svgShape"></path><path fill="#48dbc5" d="M586.313 610.41a1.313 1.313 0 0 1-1.22 1.221h-50.677a1.221 1.221 0 1 1 0-2.442h50.676a1.313 1.313 0 0 1 1.221 1.221ZM586.313 600.234a1.313 1.313 0 0 1-1.22 1.221h-50.677a1.221 1.221 0 1 1 0-2.442h50.676a1.173 1.173 0 0 1 1.221 1.221ZM586.313 589.854a1.313 1.313 0 0 1-1.22 1.222h-23.61a1.221 1.221 0 1 1 0-2.443h23.61a1.313 1.313 0 0 1 1.22 1.221Z" class="color48dbc5 svgShape"></path><path fill="#f0f4f9" d="M717.177 737H523.426a3.13 3.13 0 0 1-3.053-3.053 3.13 3.13 0 0 1 3.053-3.053h193.751a3.13 3.13 0 0 1 3.053 3.053 3.13 3.13 0 0 1-3.053 3.053ZM717.177 769.563H523.426a3.13 3.13 0 0 1-3.053-3.053 3.13 3.13 0 0 1 3.053-3.052h193.751a3.13 3.13 0 0 1 3.053 3.052 3.13 3.13 0 0 1-3.053 3.053ZM607.276 802.127h-83.85a3.13 3.13 0 0 1-3.053-3.053 3.13 3.13 0 0 1 3.053-3.053h83.85a3.13 3.13 0 0 1 3.053 3.053 3.13 3.13 0 0 1-3.053 3.053Z" class="colorf0f4f9 svgShape"></path></g></svg>